<svg width="32" height="32" viewBox="0 0 32 32" fill="none" xmlns="http://www.w3.org/2000/svg">
<g id="ava" clip-path="url(#clip0_3100_58660)">
<path id="Vector" d="M16 0C7.17628 0 0 7.17628 0 16C0 24.8237 7.17628 32 16 32C24.8237 32 32 24.8237 32 16C32 7.17628 24.8237 0 16 0Z" fill="#E986A6"/>
<path id="Vector_2" fill-rule="evenodd" clip-rule="evenodd" d="M25.21 29.0777L22.4239 20.3796H9.57648L6.79041 29.0778C9.39613 30.9181 12.5739 32.0001 16.0001 32.0001C19.4263 32.0001 22.6042 30.918 25.21 29.0777Z" fill="#6A6A89"/>
<path id="Vector_3" d="M12.7467 9.54663C12.7467 9.54663 8.20157 5.69479 6.03265 6.77331C3.86378 7.85183 6.93341 14.0385 7.54969 14.2163C8.15413 14.3881 12.6341 12.1007 12.7467 9.54663Z" fill="#38355E"/>
<path id="Vector_4" d="M19.277 9.54663C19.277 9.54663 23.8221 5.69479 25.9911 6.77331C28.1599 7.85183 25.0903 14.0385 24.474 14.2163C23.8755 14.3881 19.3955 12.1007 19.277 9.54663Z" fill="#38355E"/>
<path id="Vector_5" d="M27.3776 18.981C24.0176 15.9647 25.5287 14.4358 22.8087 11.7573C19.8042 8.80615 16.0591 8.81799 16.0591 8.81799L16.0472 8.84171L16.0353 8.81799C16.0353 8.81799 12.2724 8.80615 9.28569 11.7573C6.55385 14.4417 7.51385 16.9543 4.70497 18.8269C3.6383 19.5321 4.05313 20.741 4.89461 21.4699C5.74201 22.1988 11.5435 26.975 16.0353 26.975H16.0472H16.0591C20.5627 26.975 26.3524 22.1988 27.1998 21.4699C28.0472 20.741 28.3257 19.8402 27.3776 18.981Z" fill="#8B8AA8"/>
<path id="Vector_6" d="M3.02808 20.343C3.02808 20.343 4.11843 20.6097 5.36291 20.5327C6.27547 20.4675 7.80439 23.5253 7.80439 23.5253C7.80439 23.5253 4.53327 22.9741 3.02808 20.343Z" fill="#C2C2D9"/>
<path id="Vector_7" d="M25.1438 17.6593C23.0282 16.1067 23.4253 13.3334 20.2016 13.1675C17.0075 13.0016 16.5571 17.2623 17.2623 19.8815C17.8608 22.1156 16.2845 20.6341 16.0179 20.3675V20.3438C16.0179 20.3438 16.0119 20.3497 16.006 20.3556C15.9882 20.3379 15.9823 20.3319 15.9823 20.3319V20.3793C15.7097 20.6401 14.0445 22.1749 14.649 19.9289C15.3423 17.2979 15.0994 12.9956 11.7986 13.1675C8.57488 13.3334 8.97788 16.1067 6.85636 17.6593C4.74084 19.2119 3.12305 18.7912 3.12305 18.7912C3.75119 21.1912 7.16452 24.0001 10.4534 25.363C13.6475 26.6964 16.0238 26.9927 16.0238 26.9927V26.9749C16.3379 26.9334 18.5897 26.5897 21.5527 25.3512C24.8356 24.006 28.2549 21.1912 28.883 18.7912C28.8771 18.7853 27.2653 19.2119 25.1438 17.6593Z" fill="#C2C2D9"/>
<path id="Vector_8" d="M28.972 20.343C28.972 20.343 27.8816 20.6097 26.6372 20.5327C25.7246 20.4675 24.1957 23.5253 24.1957 23.5253C24.1957 23.5253 27.4668 22.9741 28.972 20.343Z" fill="#C2C2D9"/>
<path id="Vector_9" d="M25.9258 22.9867C25.9258 22.9867 25.2858 20.4207 24.5628 19.2415C23.5614 17.5585 22.4176 15.0459 19.6206 15.4015C16.4917 15.7985 17.9376 18.5067 18.5184 19.2415C19.0932 19.9704 20.3791 21.1674 19.5436 22.9867C18.5539 25.1319 16.3258 25.1437 16.0117 25.1319C16.0117 25.1319 16.0058 25.1319 15.9939 25.1319C15.9821 25.1319 15.9762 25.1319 15.9762 25.1319C15.6562 25.1437 13.4339 25.1259 12.4502 22.9867C11.6147 21.1615 12.9006 19.9704 13.4754 19.2415C14.0502 18.5126 15.5021 15.8044 12.3732 15.4015C9.57615 15.04 8.43243 17.5585 7.43095 19.2415C6.71391 20.4207 6.06799 22.9867 6.06799 22.9867C12.0117 27.277 15.7154 27.0222 15.9939 26.9926C16.2784 27.0163 19.9821 27.277 25.9258 22.9867Z" fill="#1D1D3F"/>
<path id="Vector_10" d="M16.1955 24.0053V22.5593H15.8221V24.0053C14.9866 23.9638 14.2281 23.6319 13.6473 23.1045C14.1273 23.9104 14.9984 24.4497 16.0059 24.4497C17.0073 24.4497 17.8844 23.9104 18.3644 23.1045C17.7836 23.6319 17.0251 23.9638 16.1955 24.0053Z" fill="#6A6A89"/>
<path id="Vector_11" d="M18.1391 20.8943C18.1391 21.718 17.1909 22.6662 16.0058 22.6662C14.8384 22.6662 13.8724 21.718 13.8724 20.8943C13.8724 20.0706 14.8206 19.7032 16.0058 19.7032C17.185 19.6973 18.1391 20.0706 18.1391 20.8943Z" fill="#444466"/>
<path id="Vector_12" d="M17.9317 21.5878C17.7895 21.487 17.6236 21.4219 17.4458 21.4219C16.9717 21.4219 16.5984 21.7952 16.5984 22.2693C16.5984 22.37 16.6102 22.4767 16.6517 22.5774C17.2147 22.4056 17.6769 22.0204 17.9317 21.5878Z" fill="#04040A"/>
<path id="Vector_13" d="M14.566 21.4156C14.3764 21.4156 14.2045 21.469 14.0801 21.5697C14.3349 22.0082 14.7971 22.3934 15.3778 22.5712C15.4134 22.4704 15.4312 22.3816 15.4312 22.263C15.4134 21.789 15.0401 21.4156 14.566 21.4156Z" fill="#04040A"/>
<path id="Vector_14" d="M11.9113 19.2835C12.8309 19.2835 13.5765 18.538 13.5765 17.6183C13.5765 16.6986 12.8309 15.9531 11.9113 15.9531C10.9917 15.9531 10.2461 16.6986 10.2461 17.6183C10.2461 18.538 10.9917 19.2835 11.9113 19.2835Z" fill="white"/>
<path id="Vector_15" d="M11.2595 17.2866C11.4788 17.4822 11.8106 17.4585 12.0062 17.2452C12.1425 17.0911 12.1721 16.8777 12.101 16.7C12.3855 16.7592 12.6343 16.937 12.7706 17.2155C12.9899 17.6837 12.7884 18.2466 12.3203 18.4659C11.8521 18.6852 11.2891 18.4837 11.0699 18.0155C10.9277 17.7133 10.9632 17.3696 11.1351 17.1029C11.1588 17.174 11.2003 17.2392 11.2595 17.2866Z" fill="#04040A"/>
<path id="Vector_16" d="M20.2016 19.2835C21.1212 19.2835 21.8668 18.538 21.8668 17.6183C21.8668 16.6986 21.1212 15.9531 20.2016 15.9531C19.2819 15.9531 18.5364 16.6986 18.5364 17.6183C18.5364 18.538 19.2819 19.2835 20.2016 19.2835Z" fill="white"/>
<path id="Vector_17" d="M19.5496 17.2866C19.7688 17.4822 20.1007 17.4585 20.2962 17.2452C20.4325 17.0911 20.4621 16.8777 20.3911 16.7C20.6755 16.7592 20.9244 16.937 21.0607 17.2155C21.2799 17.6837 21.0785 18.2466 20.6103 18.4659C20.1421 18.6852 19.5792 18.4837 19.3599 18.0155C19.2177 17.7133 19.2533 17.3696 19.4251 17.1029C19.4488 17.174 19.4903 17.2392 19.5496 17.2866Z" fill="#04040A"/>
</g>
<defs>
<clipPath id="clip0_3100_58660">
<rect width="32" height="32" fill="white"/>
</clipPath>
</defs>
</svg>
