<svg width="73" height="66" viewBox="0 0 73 66" fill="none" xmlns="http://www.w3.org/2000/svg">
<g clip-path="url(#clip0_3100_59494)">
<path fill-rule="evenodd" clip-rule="evenodd" d="M13.1102 9.46484L8.47168 18.4733L18.6546 17.4862C17.4551 14.7737 15.5175 12.1027 13.1102 9.46484Z" fill="#EE69A7"/>
<path d="M22.5883 26.8427C20.2649 20.1984 16.9768 14.4084 12.8164 9.61388L13.4623 9.06641C17.6898 13.9356 21.2966 19.3606 23.6536 26.1044L22.5883 26.8427Z" fill="white"/>
<path d="M12.674 9.82975C13.2021 9.82975 13.6302 9.40637 13.6302 8.88411C13.6302 8.36185 13.2021 7.93848 12.674 7.93848C12.1459 7.93848 11.7178 8.36185 11.7178 8.88411C11.7178 9.40637 12.1459 9.82975 12.674 9.82975Z" fill="white"/>
<path d="M39.7461 52.335C37.8504 50.7258 34.9482 50.5516 32.8848 51.9203C30.813 53.2972 29.6219 55.1553 30.1084 57.818C30.7207 61.1609 32.4067 63.6992 35.8709 63.5582C38.3369 63.4587 40.6939 61.725 41.5411 59.3111C42.3967 56.8973 41.6585 53.9608 39.7461 52.335Z" fill="#735EB7"/>
<path d="M35.7534 56.6981C35.6528 55.9765 35.3676 55.1553 34.663 54.9479C33.8494 54.7073 33.0777 55.4871 32.8344 56.2917C32.5912 57.088 32.6751 57.9673 33.0441 58.7138C33.1783 59.0871 33.4132 59.394 33.7906 59.5434C34.4449 59.8005 35.2166 59.3692 35.5437 58.747C35.8709 58.1249 35.8457 57.3866 35.7534 56.6981Z" fill="#5D4DA4"/>
<path d="M38.9492 55.5701C38.8318 55.5701 38.7311 55.4788 38.7144 55.3627C38.6976 55.2383 38.7899 55.1221 38.9241 55.1055L41.1804 54.8484C41.3146 54.8318 41.4237 54.923 41.4404 55.0558C41.4572 55.1802 41.365 55.2963 41.2307 55.3129L38.9744 55.5701C38.9744 55.5701 38.9576 55.5701 38.9492 55.5701Z" fill="#5D4DA4"/>
<path d="M41.474 57.4613C41.474 57.4613 41.4656 57.4613 41.4572 57.4613L39.3351 57.6107C39.2092 57.6189 39.0918 57.5194 39.0834 57.395C39.075 57.2706 39.1673 57.1544 39.3015 57.1461L41.4236 56.9968C41.5578 56.9885 41.6669 57.0881 41.6753 57.2125C41.6837 57.3369 41.5914 57.4448 41.474 57.4613Z" fill="#5D4DA4"/>
<path d="M40.8029 60.0495H38.6808C38.5466 60.0495 38.4459 59.9416 38.4459 59.8172C38.4459 59.6928 38.555 59.585 38.6808 59.585H40.8029C40.9371 59.585 41.0378 59.6928 41.0378 59.8172C41.0378 59.9416 40.9287 60.0495 40.8029 60.0495Z" fill="#5D4DA4"/>
<path d="M40.1067 52.6667L38.2698 52.8326C38.1439 52.8409 38.0433 52.9571 38.0601 53.0898C38.0768 53.2225 38.1859 53.3138 38.3201 53.2972L40.1738 53.1313C40.2745 53.123 40.3584 53.0483 40.3751 52.9488C40.2912 52.8492 40.2074 52.758 40.1151 52.6667H40.1067Z" fill="#5D4DA4"/>
<path d="M72.0465 45.2023C71.1826 43.8253 69.5553 42.8797 67.9197 43.0124C66.2589 43.1534 64.8665 44.3147 63.8683 45.6336C62.5095 47.4254 61.6707 49.7231 62.1236 51.913C62.543 53.9453 64.791 56.2928 67.0977 55.9444C69.6895 55.5462 72.164 52.278 72.7092 49.9056C73.0783 48.3212 72.9105 46.5793 72.0465 45.2023Z" fill="#735EB7"/>
<path d="M71.711 45.9156C71.711 45.9156 71.6859 45.9156 71.6691 45.9156L69.1695 45.6502C69.0353 45.6336 68.9346 45.5175 68.9514 45.393C68.9682 45.2686 69.0856 45.1691 69.2198 45.1857L71.7194 45.4511C71.8536 45.4677 71.9543 45.5838 71.9375 45.7082C71.9207 45.8244 71.8201 45.9073 71.7026 45.9156H71.711Z" fill="#5D4DA4"/>
<path d="M72.5247 48.1968H72.5079L69.6141 47.9894C69.4798 47.9811 69.3792 47.865 69.3876 47.7406C69.396 47.6161 69.5134 47.5166 69.6476 47.5249L72.5414 47.7323C72.6756 47.7406 72.7763 47.8567 72.7679 47.9811C72.7595 48.1056 72.6505 48.1968 72.5247 48.1968Z" fill="#5D4DA4"/>
<path d="M72.1053 50.8262C72.1053 50.8262 72.1053 50.8262 72.0969 50.8262L69.1947 50.7018C69.0605 50.7018 68.9514 50.5857 68.9598 50.4613C68.9598 50.3285 69.0856 50.229 69.2198 50.2373L72.1221 50.3617C72.2563 50.3617 72.3653 50.4779 72.3569 50.6023C72.3569 50.7267 72.2395 50.8262 72.1137 50.8262H72.1053Z" fill="#5D4DA4"/>
<path d="M70.9057 52.8752C70.9057 52.8752 70.9057 52.8752 70.8974 52.8752L68.5739 52.759C68.4649 52.759 68.381 52.6512 68.3894 52.5351C68.3894 52.4189 68.49 52.3277 68.5991 52.336L70.9225 52.4521C71.0316 52.4521 71.1154 52.5599 71.1071 52.6761C71.1071 52.7922 71.0148 52.8752 70.9141 52.8752H70.9057Z" fill="#5D4DA4"/>
<path d="M67.6178 47.9396C66.2338 44.2234 62.8702 52.5018 66.5357 51.4152C67.2739 51.1995 67.5758 50.3451 67.6933 49.5903C67.7771 49.0345 67.8107 48.4539 67.6178 47.9313V47.9396Z" fill="#5D4DA4"/>
<path d="M17.3795 32.2094C17.2369 29.4472 18.4364 26.6932 20.8689 25.366C22.471 24.4867 24.2576 24.0886 26.0275 23.7153C37.1331 21.3927 48.5826 19.9908 59.7721 21.8157C61.869 22.1558 64.0834 22.695 65.5345 24.3208C66.5914 25.507 67.0947 27.1328 67.2625 28.7504C68.4032 39.8906 55.3516 38.8372 48.3645 39.1026C41.3019 39.3763 34.2225 39.4012 27.1599 39.2851C24.006 39.2353 20.3656 39.1358 18.4951 35.9754C17.8157 34.8223 17.4466 33.5117 17.3795 32.2094Z" fill="#EE69A7"/>
<path d="M17.3962 32.4258C14.9993 39 16.687 59.3451 26.5001 59.5C33.5711 59.6161 40.4374 59.7737 47.5 59.5C68.5 58.6861 67.2707 50 67.2707 28.8838C51.3001 35.7189 23.9996 34 17.3962 32.4258Z" fill="#CA4888"/>
<path d="M67.2628 26.1063C67.2628 26.0316 67.246 25.957 67.2376 25.8906C60.997 28.3377 53.9512 29.9054 46.2175 30.569C37.167 31.3405 28.1332 30.8262 20.5002 30.2206C19.6446 30.1543 18.68 30.0796 17.858 29.7063C17.6986 29.6317 17.5393 29.5487 17.3799 29.4326C17.3799 29.4741 17.3799 29.5239 17.3799 29.5653C17.3967 29.8971 17.4302 30.2206 17.4889 30.5441C17.4889 30.5441 17.5057 30.5441 17.5141 30.5524C18.4703 30.9838 19.5104 31.0667 20.4331 31.1414C25.34 31.5313 30.8173 31.8796 36.5127 31.8796C39.7253 31.8796 43.005 31.7635 46.293 31.4898C54.0099 30.8345 61.0641 29.275 67.3215 26.8529C67.3131 26.6123 67.2963 26.3634 67.2712 26.1063H67.2628Z" fill="#943C8B"/>
<path d="M57.5493 28.6014C57.5074 28.6014 57.4654 28.5848 57.4319 28.5516L56.0982 27.2327C56.0311 27.1663 56.0311 27.0585 56.0982 26.9922C56.1653 26.9258 56.2743 26.9258 56.3414 26.9922L57.6751 28.3111C57.7422 28.3774 57.7422 28.4853 57.6751 28.5516C57.6416 28.5848 57.5996 28.6014 57.5577 28.6014H57.5493Z" fill="#CA4888"/>
<path d="M58.581 28.3941C58.5391 28.3941 58.4971 28.3775 58.4636 28.3443L57.1299 27.0254C57.0628 26.9591 57.0628 26.8512 57.1299 26.7849C57.197 26.7185 57.3061 26.7185 57.3732 26.7849L58.7068 28.1038C58.7739 28.1702 58.7739 28.278 58.7068 28.3443C58.6733 28.3775 58.6314 28.3941 58.5894 28.3941H58.581Z" fill="#CA4888"/>
<path d="M59.6128 28.1866C59.5708 28.1866 59.5289 28.17 59.4953 28.1368L58.1617 26.8179C58.0946 26.7516 58.0946 26.6437 58.1617 26.5774C58.2288 26.511 58.3378 26.511 58.4049 26.5774L59.7386 27.8963C59.8057 27.9626 59.8057 28.0705 59.7386 28.1368C59.705 28.17 59.6631 28.1866 59.6212 28.1866H59.6128Z" fill="#CA4888"/>
<path d="M60.6444 27.9793C60.6024 27.9793 60.5605 27.9627 60.527 27.9296L59.1933 26.6106C59.1262 26.5443 59.1262 26.4364 59.1933 26.3701C59.2604 26.3037 59.3694 26.3037 59.4365 26.3701L60.7702 27.689C60.8373 27.7554 60.8373 27.8632 60.7702 27.9296C60.7366 27.9627 60.6947 27.9793 60.6528 27.9793H60.6444Z" fill="#CA4888"/>
<path d="M31.9579 27.0339C37.8294 27.6394 43.7848 27.4818 49.6144 26.5694C52.005 26.1961 54.4291 25.6735 56.5093 24.4624C57.7088 23.7574 58.774 22.7868 59.5122 21.6421C47.9369 20.0827 36.1183 21.4596 24.652 23.7076C24.6185 23.7076 24.5765 23.7242 24.543 23.7325C25.9438 25.9473 29.1647 26.7436 31.9663 27.0339H31.9579Z" fill="white"/>
<path d="M66.0965 31.0914C68.3432 31.0914 70.1646 29.0562 70.1646 26.5457C70.1646 24.0352 68.3432 22 66.0965 22C63.8497 22 62.0283 24.0352 62.0283 26.5457C62.0283 29.0562 63.8497 31.0914 66.0965 31.0914Z" fill="#943C8B"/>
<path d="M66.0964 29.9882C67.7966 29.9882 69.1748 28.4469 69.1748 26.5457C69.1748 24.6445 67.7966 23.1033 66.0964 23.1033C64.3963 23.1033 63.0181 24.6445 63.0181 26.5457C63.0181 28.4469 64.3963 29.9882 66.0964 29.9882Z" fill="#FFEB4F"/>
<path d="M64.7124 23.9907C64.0749 24.4718 63.6304 25.2018 63.5213 26.0645C63.4878 26.3133 63.58 26.5622 63.8149 26.6368C64.0078 26.7032 64.293 26.5622 64.3266 26.3133C64.402 25.6995 64.6705 25.152 65.1402 24.8036C65.5847 24.4718 65.1654 23.6589 64.7208 23.999L64.7124 23.9907Z" fill="white"/>
<path d="M26.5947 17.7831C26.385 13.0928 26.9722 8.34627 30.1177 4.87066C30.3441 4.61789 30.6042 4.37214 30.8893 4.12639L30.9145 4L21 7.27901L26.9219 11.6183L21 14.9183L26.5863 17.7901L26.5947 17.7831Z" fill="#221F20"/>
<path d="M26.603 17.9939L22.4258 21.0974L27.0811 23.0002C26.8798 21.3852 26.6868 19.6931 26.603 17.9939Z" fill="#221F20"/>
<path opacity="0.3" d="M57 23.2534C56.9744 22.9394 56.4446 10.2687 55.8123 7.47973C55.4022 5.68195 54.8468 3.82876 53.3174 2.35113C48.4814 -2.32187 34.7337 0.774994 30.6324 4.67223C25.1726 9.8624 27.266 18.2787 28.0777 24.2015C28.2998 27.1568 57.2136 26.2086 56.9915 23.2534H57Z" fill="white"/>
<path d="M33.4775 4.00431C30.6508 4.25316 29.2416 7.30574 28.7719 9.7196C28.5119 11.0634 30.6424 11.6855 31.1289 10.3832C31.7832 8.64954 32.1019 6.94905 34.1066 6.40987C35.541 6.0283 34.8448 3.88818 33.4691 4.00431H33.4775Z" fill="white"/>
<path d="M30.1981 12.2168C29.8206 11.9182 29.3173 11.8767 28.8812 12.0426C28.747 12.0841 28.6128 12.1421 28.4953 12.2251C28.2521 12.4076 28.0424 12.7311 28.0088 13.0297C27.9753 13.3449 28.034 13.685 28.2437 13.9422C28.3192 14.0334 28.4114 14.1164 28.5037 14.1827C28.8308 14.4648 29.2754 14.5809 29.7032 14.4731C30.1813 14.3486 30.6175 13.9256 30.6678 13.4196C30.7097 12.9717 30.5504 12.5071 30.1897 12.2251L30.1981 12.2168Z" fill="white"/>
<path d="M28.2422 23.044C28.2506 23.1601 28.2674 23.2846 28.2757 23.4007C28.4938 27.7224 56.8785 26.3371 56.6604 22.0154C56.6604 21.9656 56.652 21.7251 56.6353 21.3186C47.1905 20.4311 37.6199 21.3767 28.2422 23.044Z" fill="#221F20"/>
<path fill-rule="evenodd" clip-rule="evenodd" d="M35.8919 18.7137H35.5564C34.4575 18.7303 33.56 19.6261 33.5684 20.7211L33.6187 25.2087C33.6187 25.3995 33.6523 25.5737 33.7026 25.7479C34.8769 25.9138 36.2609 26.0216 37.754 26.0631C37.8882 25.7894 37.9637 25.4907 37.9637 25.1672L37.9134 20.6796C37.905 19.593 36.9907 18.7054 35.8835 18.7137H35.8919Z" fill="#C76598"/>
<path fill-rule="evenodd" clip-rule="evenodd" d="M33.9039 12.451C33.971 12.1689 34.2143 11.9615 34.4575 11.7956C35.1202 11.3311 35.8583 10.9661 36.63 10.7173L36.4287 14.2427C35.8247 14.1514 34.9272 13.8777 34.4491 13.5044C34.1136 13.2473 33.8116 12.8491 33.9039 12.4427V12.451Z" fill="#DE8346"/>
<path fill-rule="evenodd" clip-rule="evenodd" d="M48.4737 18.7468L36.5125 19.5432C36.5125 19.5432 36.479 23.0188 36.0931 25.9884C40.1109 26.5359 45.3198 26.2041 49.3125 25.275C49.2118 21.9902 48.4821 18.7468 48.4821 18.7468H48.4737Z" fill="white"/>
<path fill-rule="evenodd" clip-rule="evenodd" d="M36.5126 19.5432C36.3113 19.5432 35.9841 19.8667 36.4958 20.3644C40.0607 22.4631 44.8921 22.4299 48.8512 20.7543C50.0591 20.1571 49.6061 18.5312 48.4738 18.7386L36.5126 19.5349V19.5432Z" fill="#943C8B"/>
<path fill-rule="evenodd" clip-rule="evenodd" d="M48.4738 18.747L48.1886 17.229L42.619 17.6686L42.7281 20.5304C42.7281 20.5304 48.0795 20.3148 48.4738 18.747Z" fill="#FFEB4F"/>
<path fill-rule="evenodd" clip-rule="evenodd" d="M49.7403 8.80119C49.7403 8.80119 48.3647 5.30068 47.6098 5.56613C46.8549 5.83157 46.662 8.83437 46.662 8.83437L49.7487 8.80119H49.7403Z" fill="white"/>
<path fill-rule="evenodd" clip-rule="evenodd" d="M34.4911 15.4787C34.4827 14.7322 36.2694 14.0603 36.6636 14.0271L36.6888 16.7479C36.2274 16.8557 34.4995 16.2253 34.4911 15.4787Z" fill="#DE8346"/>
<path fill-rule="evenodd" clip-rule="evenodd" d="M36.6887 16.7478L36.5294 18.7054C36.0261 18.7552 35.5228 18.3653 35.4473 17.8759C35.3718 17.3865 36.2022 16.8556 36.6971 16.7478H36.6887Z" fill="#DE8346"/>
<path fill-rule="evenodd" clip-rule="evenodd" d="M43.2145 18.0003C43.2145 18.0003 51.1998 18.1413 51.2333 15.0224C51.2585 11.9034 50.6294 8.26192 49.2034 8.47759C47.7775 8.69327 42.686 8.41953 42.686 8.41953C42.686 8.41953 35.9002 8.17068 36.1183 12.8574C36.3364 17.5441 36.5041 19.4851 36.5041 19.4851C36.5041 19.4851 39.0121 20.5718 42.9545 20.5386L43.2061 18.0003H43.2145Z" fill="#EAB04E"/>
<path fill-rule="evenodd" clip-rule="evenodd" d="M36.2022 4.55419C36.1016 4.78645 36.0848 5.08507 36.261 5.24268C36.4371 5.40029 36.7978 5.3754 36.9572 5.24268C37.1333 5.08507 37.7708 4.47953 38.0224 4.37999C38.2824 4.28045 38.576 3.96524 38.4921 3.69151C38.4167 3.41777 38.0727 3.31823 37.6198 3.37629C36.9488 3.43436 36.4539 4.0399 36.1939 4.55419H36.2022Z" fill="#0D1112"/>
<path fill-rule="evenodd" clip-rule="evenodd" d="M42.5603 3.11904C42.5183 3.40937 42.8371 3.66652 43.1306 3.74117C43.3907 3.81583 44.1036 4.3633 44.2798 4.47943C44.4559 4.59556 44.8166 4.57897 44.976 4.39648C45.1353 4.22229 45.0766 3.92366 44.934 3.70799C44.6572 3.20199 44.0785 2.696 43.3907 2.67111C42.9377 2.65452 42.6022 2.81213 42.5603 3.10245V3.11904Z" fill="#0D1112"/>
<path fill-rule="evenodd" clip-rule="evenodd" d="M35.397 8.19552C35.4222 9.68034 36.6468 10.8748 38.1482 10.8499C39.6497 10.8251 40.8575 9.61398 40.8324 8.12916C40.8072 6.64435 39.5826 5.44986 38.0811 5.47475C36.5965 5.49963 35.3718 6.66923 35.397 8.19552Z" fill="#735EB7"/>
<path fill-rule="evenodd" clip-rule="evenodd" d="M40.111 7.24997C40.1361 8.73478 41.3608 9.92927 42.8622 9.90438C44.3637 9.8795 45.5715 8.66842 45.5463 7.18361C45.5212 5.69879 44.2966 4.50431 42.7951 4.52919C41.2937 4.55408 40.0858 5.76515 40.111 7.24997Z" fill="#735EB7"/>
<path fill-rule="evenodd" clip-rule="evenodd" d="M36.3615 8.17897C36.3615 9.1412 37.1752 9.89605 38.123 9.89605C39.0708 9.89605 39.8593 9.09143 39.8593 8.15409C39.8593 7.19186 39.0457 6.43701 38.0978 6.43701C37.15 6.43701 36.3364 7.20015 36.3615 8.17897Z" fill="white"/>
<path fill-rule="evenodd" clip-rule="evenodd" d="M37.6198 8.16237C37.6198 8.6103 38.014 8.96699 38.4334 8.96699C38.8696 8.96699 39.247 8.6103 39.247 8.16237C39.247 7.71443 38.8863 7.35775 38.4334 7.35775C37.9804 7.34116 37.6198 7.68955 37.6198 8.16237Z" fill="#0D1112"/>
<path fill-rule="evenodd" clip-rule="evenodd" d="M41.0588 7.25002C41.0588 8.21224 41.8725 8.96709 42.8203 8.96709C43.7681 8.96709 44.5566 8.16247 44.5566 7.22513C44.5566 6.2712 43.743 5.50806 42.7951 5.50806C41.8473 5.50806 41.0588 6.29609 41.0588 7.25002Z" fill="white"/>
<path fill-rule="evenodd" clip-rule="evenodd" d="M42.3338 7.30804C42.3338 7.75597 42.6945 8.11266 43.1474 8.11266C43.6004 8.11266 43.961 7.75597 43.961 7.30804C43.961 6.8601 43.6004 6.50342 43.1474 6.50342C42.6945 6.50342 42.317 6.87669 42.3338 7.30804Z" fill="#0D1112"/>
<path d="M48.197 16.0013C48.8429 16.0013 49.4803 15.711 49.9165 15.2382C50.0339 15.1055 50.0256 14.9064 49.8913 14.782C49.7571 14.6658 49.5558 14.6741 49.43 14.8069C49.1113 15.1552 48.6499 15.3626 48.1634 15.3626C47.6937 15.3626 47.2156 15.1552 46.9052 14.7986C46.7878 14.6658 46.5781 14.6575 46.4439 14.7737C46.3097 14.8898 46.3013 15.0972 46.4187 15.2299C46.8549 15.711 47.5092 16.0013 48.1634 16.0013C48.1718 16.0013 48.1802 16.0013 48.1886 16.0013H48.197Z" fill="#DE8346"/>
<path d="M37.7288 24.9598C39.3733 24.9598 40.7065 23.6414 40.7065 22.0151C40.7065 20.3887 39.3733 19.0703 37.7288 19.0703C36.0843 19.0703 34.7511 20.3887 34.7511 22.0151C34.7511 23.6414 36.0843 24.9598 37.7288 24.9598Z" fill="#943C8B"/>
<path fill-rule="evenodd" clip-rule="evenodd" d="M37.6533 20.2566C36.5293 20.2649 35.615 21.1856 35.6318 22.2972L35.6738 25.9636C36.9319 26.0548 38.3243 26.0963 39.7671 26.0797L39.7251 22.2557C39.7167 21.1441 38.7857 20.24 37.6617 20.2566H37.6533Z" fill="#735EB7"/>
<path d="M10.9543 39.8914C11.8206 39.8914 12.5228 39.1969 12.5228 38.3402C12.5228 37.4835 11.8206 36.7891 10.9543 36.7891C10.088 36.7891 9.38574 37.4835 9.38574 38.3402C9.38574 39.1969 10.088 39.8914 10.9543 39.8914Z" fill="#B9F2FB"/>
<path d="M9.39402 33.3126C11.3397 33.3126 12.9169 31.7528 12.9169 29.8286C12.9169 27.9045 11.3397 26.3447 9.39402 26.3447C7.44836 26.3447 5.87109 27.9045 5.87109 29.8286C5.87109 31.7528 7.44836 33.3126 9.39402 33.3126Z" fill="#B9F2FB"/>
<path d="M1.46788 35.8261C2.27858 35.8261 2.93577 35.1762 2.93577 34.3745C2.93577 33.5728 2.27858 32.9229 1.46788 32.9229C0.657194 32.9229 0 33.5728 0 34.3745C0 35.1762 0.657194 35.8261 1.46788 35.8261Z" fill="#B9F2FB"/>
<path d="M13.0102 57.5188C12.9599 56.54 13.0857 55.5197 13.6058 54.6902C14.5452 53.2136 17.2042 52.2514 18.8818 52.0274C20.8529 51.762 22.8241 53.4708 23.7551 55.0551C24.8036 56.8386 25.0637 58.9953 24.8204 61.0442C24.6946 62.1142 24.4178 63.2341 23.6461 63.9972C21.8008 65.847 18.412 65.2083 16.508 63.8479C14.4613 62.3797 13.1277 60.0239 13.0018 57.5188H13.0102Z" fill="#735EB7"/>
<path d="M18.9153 58.8958C18.714 58.2819 18.5043 57.6349 18.0178 57.2036C17.5397 56.7723 16.7009 56.6478 16.2563 57.1289C15.9124 57.5022 15.9376 58.0829 16.055 58.5806C16.2395 59.3354 16.7009 60.6046 17.4138 61.0276C19.0662 62.0064 19.3011 60.1069 18.9153 58.9041V58.8958Z" fill="#5D4DA4"/>
<path d="M21.6078 59.1777C21.4904 59.1777 21.3897 59.0947 21.3729 58.9786C21.3562 58.8542 21.4484 58.7297 21.5743 58.7131L24.2332 58.3647C24.359 58.3482 24.4849 58.4394 24.5016 58.5638C24.5184 58.6883 24.4261 58.8127 24.3003 58.8293L21.6414 59.1777C21.6414 59.1777 21.6162 59.1777 21.6078 59.1777Z" fill="#5D4DA4"/>
<path d="M22.0105 61.8489C21.8931 61.8489 21.7924 61.7576 21.7756 61.6415C21.7589 61.5171 21.8511 61.4009 21.9853 61.3843L24.2417 61.1189C24.3675 61.1023 24.4849 61.1935 24.5017 61.3263C24.5185 61.4507 24.4262 61.5668 24.292 61.5834L22.0357 61.8489C22.0357 61.8489 22.0189 61.8489 22.0105 61.8489Z" fill="#5D4DA4"/>
<path d="M24.183 55.9094C24.1326 55.785 24.0739 55.6606 24.0152 55.5444C23.9984 55.5444 23.9816 55.5444 23.9565 55.5444L20.3832 56.1251C20.2574 56.15 20.1651 56.2661 20.1903 56.3905C20.2071 56.5067 20.3077 56.5896 20.4252 56.5896C20.4419 56.5896 20.4503 56.5896 20.4671 56.5896L24.0404 56.009C24.0991 56.0007 24.1578 55.9675 24.1913 55.9177L24.183 55.9094Z" fill="#5D4DA4"/>
<path d="M22.4466 53.4375C22.3376 53.338 22.2369 53.2468 22.1195 53.1555L18.2946 53.9104C18.1688 53.9353 18.0849 54.0597 18.1101 54.1841C18.1352 54.2919 18.2275 54.3666 18.3281 54.3749C18.3449 54.3749 18.3617 54.3749 18.3869 54.3749L22.2705 53.6117C22.3627 53.5952 22.4214 53.5288 22.4466 53.4458V53.4375Z" fill="#5D4DA4"/>
<path d="M64.4662 58.3383C64.3404 56.0157 62.5706 53.9004 60.3142 53.2368C58.0579 52.5732 55.4744 53.3447 53.8639 55.0451C50.7772 58.3217 51.3727 65.696 56.7913 65.9697C58.9973 66.0859 61.1111 64.8831 62.5538 63.2241C63.7365 61.8637 64.5585 60.1217 64.4662 58.33V58.3383Z" fill="#735EB7"/>
<path d="M57.672 57.7411C57.3533 57.2268 56.7493 56.8618 56.1454 56.9365C55.6002 57.0028 55.1473 57.4093 54.8956 57.8821C54.4762 58.6618 53.931 61.0591 54.6775 61.7476C56.2628 63.2158 57.9572 60.8434 58.0411 59.483C58.0746 58.8775 57.9991 58.2471 57.672 57.7411Z" fill="#5D4DA4"/>
<path d="M62.9648 55.6756C62.9648 55.6756 62.948 55.6756 62.9396 55.6756L60.0206 55.3936C59.8948 55.377 59.7941 55.2692 59.8109 55.1364C59.8277 55.012 59.9367 54.9125 60.0709 54.9291L62.9899 55.2111C63.1158 55.2277 63.2164 55.3355 63.1996 55.4682C63.1912 55.5927 63.0822 55.6756 62.9648 55.6756Z" fill="#5D4DA4"/>
<path d="M63.9378 58.3051C63.9378 58.3051 63.9294 58.3051 63.921 58.3051L60.6497 57.9982C60.5407 57.9899 60.4568 57.8738 60.4652 57.7494C60.4736 57.6249 60.5742 57.5254 60.6833 57.5337L63.9546 57.8406C64.0636 57.8489 64.1475 57.965 64.1391 58.0895C64.1307 58.2139 64.0468 58.3051 63.9378 58.3051Z" fill="#5D4DA4"/>
<path d="M63.6023 61.0259C63.6023 61.0259 63.5939 61.0259 63.5855 61.0259L60.7671 60.7604C60.6581 60.7521 60.5742 60.636 60.5826 60.5116C60.591 60.3871 60.6833 60.2876 60.8007 60.2959L63.619 60.5613C63.7281 60.5696 63.812 60.6858 63.8036 60.8102C63.7952 60.9346 63.7113 61.0259 63.6023 61.0259Z" fill="#5D4DA4"/>
<path d="M62.2014 63.4896C62.2014 63.4896 62.1847 63.4896 62.1763 63.4896L60.0038 63.1744C59.8864 63.1578 59.8025 63.0251 59.8109 62.8758C59.8277 62.7265 59.9283 62.6186 60.0457 62.6352L62.2182 62.9504C62.3356 62.967 62.4195 63.0998 62.4111 63.2491C62.3944 63.3901 62.3021 63.4896 62.2014 63.4896Z" fill="#5D4DA4"/>
<path d="M51.0824 34.6404C53.9314 34.6404 56.241 32.3564 56.241 29.539C56.241 26.7215 53.9314 24.4375 51.0824 24.4375C48.2334 24.4375 45.9238 26.7215 45.9238 29.539C45.9238 32.3564 48.2334 34.6404 51.0824 34.6404Z" fill="#943C8B"/>
<path d="M51.0824 33.4043C53.2411 33.4043 54.9911 31.6737 54.9911 29.5388C54.9911 27.404 53.2411 25.6733 51.0824 25.6733C48.9236 25.6733 47.1736 27.404 47.1736 29.5388C47.1736 31.6737 48.9236 33.4043 51.0824 33.4043Z" fill="#FFEB4F"/>
<path d="M49.3209 26.6771C48.5157 27.2163 47.9453 28.0375 47.8111 28.9997C47.7692 29.2818 47.8782 29.5555 48.1802 29.6468C48.4318 29.7131 48.7925 29.5638 48.8344 29.2818C48.9351 28.5933 49.2706 27.9795 49.8578 27.5813C50.4198 27.208 49.8913 26.2956 49.3209 26.6771Z" fill="white"/>
</g>
<defs>
<clipPath id="clip0_3100_59494">
<rect width="73" height="66" fill="white"/>
</clipPath>
</defs>
</svg>
