<svg width="18" height="16" viewBox="0 0 18 16" fill="none" xmlns="http://www.w3.org/2000/svg">
<g filter="url(#filter0_d_3100_59584)">
<path fill-rule="evenodd" clip-rule="evenodd" d="M8.83283 1.70307C9.03678 1.14837 9.65633 0.862366 10.2167 1.06426L15.2893 2.89209C15.8496 3.09393 16.1385 3.70728 15.9346 4.262L12.9805 12.297C12.7766 12.8516 12.157 13.1376 11.5967 12.9357L6.52407 11.1079C5.96373 10.906 5.67482 10.2927 5.87876 9.73802L8.83283 1.70307ZM4.38974 2.08939L2.71068 2.69439C2.15037 2.89629 1.86147 3.50964 2.06541 4.06431L4.36059 10.3071V2.4414C4.36059 2.32148 4.37058 2.20391 4.38974 2.08939ZM7.80518 1.37329H6.51975C5.92352 1.37329 5.44011 1.85184 5.44011 2.4421V7.80611L7.80518 1.37329Z" fill="white"/>
</g>
<defs>
<filter id="filter0_d_3100_59584" x="0.5" y="0.499512" width="17" height="15.001" filterUnits="userSpaceOnUse" color-interpolation-filters="sRGB">
<feFlood flood-opacity="0" result="BackgroundImageFix"/>
<feColorMatrix in="SourceAlpha" type="matrix" values="0 0 0 0 0 0 0 0 0 0 0 0 0 0 0 0 0 0 127 0" result="hardAlpha"/>
<feOffset dy="1"/>
<feGaussianBlur stdDeviation="0.75"/>
<feComposite in2="hardAlpha" operator="out"/>
<feColorMatrix type="matrix" values="0 0 0 0 0 0 0 0 0 0 0 0 0 0 0 0 0 0 0.14 0"/>
<feBlend mode="normal" in2="BackgroundImageFix" result="effect1_dropShadow_3100_59584"/>
<feBlend mode="normal" in="SourceGraphic" in2="effect1_dropShadow_3100_59584" result="shape"/>
</filter>
</defs>
</svg>
