<svg width="25" height="24" viewBox="0 0 25 24" fill="none" xmlns="http://www.w3.org/2000/svg">
<g id="Group 164">
<path id="Subtract" fill-rule="evenodd" clip-rule="evenodd" d="M12.5 22C18.0228 22 22.5 17.5228 22.5 12C22.5 6.47715 18.0228 2 12.5 2C6.97715 2 2.5 6.47715 2.5 12C2.5 17.5228 6.97715 22 12.5 22ZM13.4 7.90284C13.4 7.40579 12.9971 7.00284 12.5 7.00284C12.0029 7.00284 11.6 7.40579 11.6 7.90284V11.9998V12.463L11.9769 12.7322L15.4769 15.2322C15.8814 15.5211 16.4435 15.4274 16.7324 15.0229C17.0213 14.6185 16.9276 14.0564 16.5231 13.7675L13.4 11.5367V7.90284Z" fill="white"/>
</g>
</svg>
